<?xml version="1.0" encoding="utf-8" standalone="no"?>
<!DOCTYPE svg PUBLIC "-//W3C//DTD SVG 1.1//EN"
  "http://www.w3.org/Graphics/SVG/1.1/DTD/svg11.dtd">
<svg xmlns:xlink="http://www.w3.org/1999/xlink" width="480pt" height="240pt" viewBox="0 0 480 240" xmlns="http://www.w3.org/2000/svg" version="1.1">
 <metadata>
  <rdf:RDF xmlns:dc="http://purl.org/dc/elements/1.1/" xmlns:cc="http://creativecommons.org/ns#" xmlns:rdf="http://www.w3.org/1999/02/22-rdf-syntax-ns#">
   <cc:Work>
    <dc:type rdf:resource="http://purl.org/dc/dcmitype/StillImage"/>
    <dc:date>2025-01-02T00:49:36.684419</dc:date>
    <dc:format>image/svg+xml</dc:format>
    <dc:creator>
     <cc:Agent>
      <dc:title>Matplotlib v3.9.3, https://matplotlib.org/</dc:title>
     </cc:Agent>
    </dc:creator>
   </cc:Work>
  </rdf:RDF>
 </metadata>
 <defs>
  <style type="text/css">*{stroke-linejoin: round; stroke-linecap: butt}</style>
 </defs>
 <g id="figure_1">
  <g id="patch_1">
   <path d="M 0 240 
L 480 240 
L 480 0 
L 0 0 
L 0 240 
z
" style="fill: none"/>
  </g>
  <g id="axes_1">
   <g id="patch_2">
    <path d="M 294.275862 98.8 
C 294.275862 97.62752 294.233148 96.455428 294.147804 95.286058 
C 294.062461 94.116687 293.934545 92.950814 293.764311 91.790758 
L 314.23473 88.786797 
C 314.477921 90.44402 314.660659 92.109554 314.782578 93.780083 
C 314.904497 95.450612 314.965517 97.125028 314.965517 98.8 
z
" clip-path="url(#p5effe4c440)" style="fill: #800000"/>
   </g>
   <g id="patch_3">
    <path d="M 293.764311 91.790758 
C 293.721114 91.496396 293.675197 91.20244 293.626566 90.908926 
C 293.577935 90.615413 293.526592 90.322356 293.472543 90.029792 
L 313.817918 86.271132 
C 313.895131 86.68908 313.968479 87.107733 314.037952 87.527038 
C 314.107425 87.946342 314.17302 88.36628 314.23473 88.786797 
z
" clip-path="url(#p5effe4c440)" style="fill: #89e051"/>
   </g>
   <g id="patch_4">
    <path d="M 293.472543 90.029792 
C 292.982757 87.378613 292.271741 84.773117 291.346958 82.240645 
C 290.422175 79.708173 289.28687 77.257614 287.952957 74.914686 
L 305.932796 64.678122 
C 307.838386 68.025164 309.46025 71.525961 310.781369 75.143779 
C 312.102488 78.761596 313.118224 82.483733 313.817918 86.271132 
z
" clip-path="url(#p5effe4c440)" style="fill: #178600"/>
   </g>
   <g id="patch_5">
    <path d="M 287.952957 74.914686 
C 287.088313 73.395996 286.141842 71.925377 285.117725 70.509322 
C 284.093608 69.093268 282.993354 67.733867 281.821824 66.437123 
L 297.174034 52.567319 
C 298.847649 54.41981 300.41944 56.361811 301.882464 58.384746 
C 303.345489 60.407681 304.69759 62.508566 305.932796 64.678122 
z
" clip-path="url(#p5effe4c440)" style="fill: #f1e05a"/>
   </g>
   <g id="patch_6">
    <path d="M 281.821824 66.437123 
C 279.78519 64.182814 277.540297 62.125781 275.117032 60.293412 
C 272.693768 58.461044 270.102935 56.861507 267.379029 55.5161 
L 276.541469 36.965857 
C 280.432764 38.887868 284.133954 41.172919 287.59576 43.790589 
C 291.057567 46.408259 294.264558 49.346877 297.174034 52.567319 
z
" clip-path="url(#p5effe4c440)" style="fill: #dea584"/>
   </g>
   <g id="patch_7">
    <path d="M 267.379029 55.5161 
C 265.489959 54.58304 263.54183 53.774649 261.547144 53.096114 
C 259.552457 52.417579 257.515487 51.870355 255.449305 51.457952 
L 259.499007 31.168503 
C 262.450696 31.75765 265.360652 32.539399 268.210205 33.508734 
C 271.059758 34.47807 273.842798 35.632914 276.541469 36.965857 
z
" clip-path="url(#p5effe4c440)" style="fill: #0000fb"/>
   </g>
   <g id="patch_8">
    <path d="M 255.449305 51.457952 
C 253.599876 51.088813 251.730404 50.828363 249.850504 50.677942 
C 247.970604 50.527521 246.083504 50.487387 244.198908 50.557747 
L 243.427012 29.882496 
C 246.119291 29.781982 248.815149 29.839316 251.50072 30.054203 
C 254.186292 30.26909 256.856965 30.641161 259.499007 31.168503 
z
" clip-path="url(#p5effe4c440)" style="fill: #00add8"/>
   </g>
   <g id="patch_9">
    <path d="M 244.198908 50.557747 
C 242.151612 50.634182 240.111255 50.840863 238.090219 51.176537 
C 236.069182 51.512211 234.071562 51.976197 232.109477 52.565681 
L 226.156396 32.750973 
C 228.959374 31.908854 231.813118 31.246016 234.700313 30.766482 
C 237.587508 30.286947 240.502303 29.991688 243.427012 29.882496 
z
" clip-path="url(#p5effe4c440)" style="fill: #ffaff3"/>
   </g>
   <g id="patch_10">
    <path d="M 232.109477 52.565681 
C 229.892034 53.231884 227.725389 54.056751 225.626324 55.033892 
C 223.527259 56.011034 221.501208 57.13792 219.563864 58.405823 
L 208.234091 41.094033 
C 211.001725 39.282743 213.896084 37.672905 216.894749 36.276989 
C 219.893413 34.881073 222.988621 33.702692 226.156396 32.750973 
z
" clip-path="url(#p5effe4c440)" style="fill: #ffc200"/>
   </g>
   <g id="patch_11">
    <path d="M 219.563864 58.405823 
C 218.002794 59.427471 216.502261 60.538754 215.069815 61.734079 
C 213.63737 62.929403 212.275419 64.206761 210.990819 65.559722 
L 195.986884 51.313888 
C 197.822028 49.381087 199.767671 47.55629 201.814022 45.848684 
C 203.860373 44.141077 206.003992 42.55353 208.234091 41.094033 
z
" clip-path="url(#p5effe4c440)" style="fill: #00b4ab"/>
   </g>
   <g id="patch_12">
    <path d="M 210.990819 65.559722 
C 208.912346 67.748802 207.043768 70.128011 205.409646 72.666075 
C 203.775525 75.204138 202.383052 77.889887 201.250533 80.688014 
L 182.072189 72.925735 
C 183.690075 68.928409 185.679321 65.091626 188.01378 61.465821 
C 190.34824 57.840016 193.017638 54.441145 195.986884 51.313888 
z
" clip-path="url(#p5effe4c440)" style="fill: #60affe"/>
   </g>
   <g id="patch_13">
    <path d="M 201.250533 80.688014 
C 200.345768 82.923424 199.609776 85.22349 199.048738 87.568889 
C 198.4877 89.914287 198.103193 92.298431 197.898447 94.701291 
L 177.283495 92.944701 
C 177.57599 89.512044 178.125286 86.106124 178.926769 82.755555 
C 179.728251 79.404986 180.779669 76.119178 182.072189 72.925735 
z
" clip-path="url(#p5effe4c440)" style="fill: #3178c6"/>
   </g>
   <g id="patch_14">
    <path d="M 197.898447 94.701291 
L 197.898447 94.701291 
L 177.283495 92.944701 
L 177.283495 92.944701 
z
" clip-path="url(#p5effe4c440)" style="fill: #a97bff"/>
   </g>
   <g id="patch_15">
    <path d="M 197.898447 94.701291 
C 197.713833 96.867876 197.675811 99.044462 197.78464 101.216174 
C 197.893469 103.387885 198.148901 105.549765 198.54919 107.68704 
L 178.213128 111.495772 
C 177.641287 108.442522 177.276384 105.354122 177.120914 102.251677 
C 176.965444 99.149231 177.019761 96.039823 177.283495 92.944701 
z
" clip-path="url(#p5effe4c440)" style="fill: #6e4a7e"/>
   </g>
   <g id="patch_16">
    <path d="M 198.54919 107.68704 
C 198.966411 109.914719 199.539989 112.110254 200.265667 114.257349 
C 200.991345 116.404444 201.867323 118.497773 202.887099 120.5218 
L 184.410141 129.831142 
C 182.953318 126.939676 181.701921 123.949205 180.665238 120.881927 
C 179.628556 117.814648 178.809158 114.67817 178.213128 111.495772 
z
" clip-path="url(#p5effe4c440)" style="fill: #ff4c1f"/>
   </g>
   <g id="patch_17">
    <path d="M 202.887099 120.5218 
C 203.271655 121.285057 203.676412 122.037968 204.100942 122.779736 
C 204.525471 123.521505 204.969625 124.251868 205.432931 124.970055 
L 188.047045 136.185793 
C 187.385178 135.159812 186.750674 134.116435 186.144202 133.056766 
C 185.537731 131.997098 184.959507 130.921511 184.410141 129.831142 
z
" clip-path="url(#p5effe4c440)" style="fill: #5e5086"/>
   </g>
   <g id="patch_18">
    <path d="M 205.432931 124.970055 
C 206.357422 126.403139 207.357202 127.786228 208.428065 129.113504 
C 209.498928 130.440781 210.639371 131.710381 211.844596 132.916964 
L 197.206566 147.538521 
C 195.484816 145.81483 193.855612 144.001116 192.325807 142.105006 
C 190.796002 140.208897 189.367746 138.233055 188.047045 136.185793 
z
" clip-path="url(#p5effe4c440)" style="fill: #000100"/>
   </g>
   <g id="patch_19">
    <path d="M 211.844596 132.916964 
C 214.039375 135.114216 216.441068 137.09456 219.016267 138.830451 
C 221.591466 140.566341 224.328174 142.049691 227.188321 143.259865 
L 219.126173 162.314093 
C 215.040248 160.585273 211.130665 158.466202 207.45181 155.986358 
C 203.772954 153.506515 200.341964 150.677451 197.206566 147.538521 
z
" clip-path="url(#p5effe4c440)" style="fill: #ec915c"/>
   </g>
   <g id="patch_20">
    <path d="M 227.188321 143.259865 
C 230.057805 144.473989 233.038102 145.407468 236.087485 146.047232 
C 239.136867 146.686995 242.241038 147.030043 245.356532 147.071573 
L 245.080761 167.759391 
C 240.630054 167.700062 236.195525 167.209993 231.839264 166.296045 
C 227.483003 165.382097 223.225435 164.048556 219.126173 162.314093 
z
" clip-path="url(#p5effe4c440)" style="fill: #b07219"/>
   </g>
   <g id="patch_21">
    <path d="M 245.356532 147.071573 
C 246.660424 147.088955 247.964485 147.053498 249.265506 146.965292 
C 250.566527 146.877085 251.863441 146.736201 253.153054 146.542986 
L 256.218649 167.004265 
C 254.376344 167.280287 252.523611 167.48155 250.665009 167.60756 
C 248.806408 167.733569 246.943463 167.784221 245.080761 167.759391 
z
" clip-path="url(#p5effe4c440)" style="fill: #701516"/>
   </g>
   <g id="patch_22">
    <path d="M 253.153054 146.542986 
C 256.139199 146.095589 259.076794 145.369019 261.927203 144.372833 
C 264.777612 143.376646 267.528284 142.115229 270.14304 140.605173 
L 280.490057 158.521675 
C 276.754691 160.678899 272.82516 162.480923 268.753147 163.904047 
C 264.681134 165.32717 260.484569 166.365127 256.218649 167.004265 
z
" clip-path="url(#p5effe4c440)" style="fill: #3572a5"/>
   </g>
   <g id="patch_23">
    <path d="M 270.14304 140.605173 
C 272.08375 139.484387 273.944062 138.229821 275.710474 136.85058 
C 277.476886 135.471338 279.145113 133.970767 280.703048 132.359757 
L 295.575784 146.74251 
C 293.350161 149.043953 290.966979 151.187626 288.443534 153.157971 
C 285.920089 155.128315 283.2625 156.920553 280.490057 158.521675 
z
" clip-path="url(#p5effe4c440)" style="fill: #555555"/>
   </g>
   <g id="patch_24">
    <path d="M 280.703048 132.359757 
C 281.355781 131.684788 281.988682 130.990919 282.600945 130.279035 
C 283.213208 129.567152 283.804571 128.837558 284.374281 128.091184 
L 300.820401 140.644548 
C 300.006531 141.710797 299.161726 142.753075 298.287065 143.770051 
C 297.412403 144.787027 296.508258 145.778268 295.575784 146.74251 
z
" clip-path="url(#p5effe4c440)" style="fill: #c22d40"/>
   </g>
   <g id="patch_25">
    <path d="M 284.374281 128.091184 
C 286.895763 124.787799 288.980174 121.172611 290.575761 117.335382 
C 292.171348 113.498154 293.264795 109.470906 293.828953 105.353632 
L 314.327076 108.162331 
C 313.521136 114.044152 311.959068 119.797362 309.679658 125.279118 
C 307.400248 130.760873 304.422518 135.925427 300.820401 140.644548 
z
" clip-path="url(#p5effe4c440)" style="fill: #f34b7d"/>
   </g>
   <g id="patch_26">
    <path d="M 293.828953 105.353632 
C 293.977707 104.268015 294.089456 103.177648 294.164005 102.084426 
C 294.238555 100.991204 294.275862 99.895761 294.275862 98.8 
L 314.965517 98.8 
C 314.965517 100.365373 314.912221 101.930291 314.805722 103.492037 
C 314.699222 105.053783 314.539581 106.61145 314.327076 108.162331 
z
" clip-path="url(#p5effe4c440)" style="fill: #000080"/>
   </g>
  </g>
  <g id="axes_2">
   <g id="legend_1">
    <g id="patch_27">
     <path d="M 17.111875 230.15625 
L 474.888125 230.15625 
Q 476.488125 230.15625 476.488125 228.55625 
L 476.488125 170.64375 
Q 476.488125 169.04375 474.888125 169.04375 
L 17.111875 169.04375 
Q 15.511875 169.04375 15.511875 170.64375 
L 15.511875 228.55625 
Q 15.511875 230.15625 17.111875 230.15625 
z
" style="fill: #ffffff; opacity: 0.8; stroke: #cccccc; stroke-linejoin: miter"/>
    </g>
    <g id="patch_28">
     <path d="M 18.711875 178.3225 
L 34.711875 178.3225 
L 34.711875 172.7225 
L 18.711875 172.7225 
z
" style="fill: #800000"/>
    </g>
    <g id="text_1">
     <!-- Squirrel 2.3% -->
     <g transform="translate(41.111875 178.3225) scale(0.08 -0.08)">
      <defs>
       <path id="DejaVuSans-53" d="M 3425 4513 
L 3425 3897 
Q 3066 4069 2747 4153 
Q 2428 4238 2131 4238 
Q 1616 4238 1336 4038 
Q 1056 3838 1056 3469 
Q 1056 3159 1242 3001 
Q 1428 2844 1947 2747 
L 2328 2669 
Q 3034 2534 3370 2195 
Q 3706 1856 3706 1288 
Q 3706 609 3251 259 
Q 2797 -91 1919 -91 
Q 1588 -91 1214 -16 
Q 841 59 441 206 
L 441 856 
Q 825 641 1194 531 
Q 1563 422 1919 422 
Q 2459 422 2753 634 
Q 3047 847 3047 1241 
Q 3047 1584 2836 1778 
Q 2625 1972 2144 2069 
L 1759 2144 
Q 1053 2284 737 2584 
Q 422 2884 422 3419 
Q 422 4038 858 4394 
Q 1294 4750 2059 4750 
Q 2388 4750 2728 4690 
Q 3069 4631 3425 4513 
z
" transform="scale(0.015625)"/>
       <path id="DejaVuSans-71" d="M 947 1747 
Q 947 1113 1208 752 
Q 1469 391 1925 391 
Q 2381 391 2643 752 
Q 2906 1113 2906 1747 
Q 2906 2381 2643 2742 
Q 2381 3103 1925 3103 
Q 1469 3103 1208 2742 
Q 947 2381 947 1747 
z
M 2906 525 
Q 2725 213 2448 61 
Q 2172 -91 1784 -91 
Q 1150 -91 751 415 
Q 353 922 353 1747 
Q 353 2572 751 3078 
Q 1150 3584 1784 3584 
Q 2172 3584 2448 3432 
Q 2725 3281 2906 2969 
L 2906 3500 
L 3481 3500 
L 3481 -1331 
L 2906 -1331 
L 2906 525 
z
" transform="scale(0.015625)"/>
       <path id="DejaVuSans-75" d="M 544 1381 
L 544 3500 
L 1119 3500 
L 1119 1403 
Q 1119 906 1312 657 
Q 1506 409 1894 409 
Q 2359 409 2629 706 
Q 2900 1003 2900 1516 
L 2900 3500 
L 3475 3500 
L 3475 0 
L 2900 0 
L 2900 538 
Q 2691 219 2414 64 
Q 2138 -91 1772 -91 
Q 1169 -91 856 284 
Q 544 659 544 1381 
z
M 1991 3584 
L 1991 3584 
z
" transform="scale(0.015625)"/>
       <path id="DejaVuSans-69" d="M 603 3500 
L 1178 3500 
L 1178 0 
L 603 0 
L 603 3500 
z
M 603 4863 
L 1178 4863 
L 1178 4134 
L 603 4134 
L 603 4863 
z
" transform="scale(0.015625)"/>
       <path id="DejaVuSans-72" d="M 2631 2963 
Q 2534 3019 2420 3045 
Q 2306 3072 2169 3072 
Q 1681 3072 1420 2755 
Q 1159 2438 1159 1844 
L 1159 0 
L 581 0 
L 581 3500 
L 1159 3500 
L 1159 2956 
Q 1341 3275 1631 3429 
Q 1922 3584 2338 3584 
Q 2397 3584 2469 3576 
Q 2541 3569 2628 3553 
L 2631 2963 
z
" transform="scale(0.015625)"/>
       <path id="DejaVuSans-65" d="M 3597 1894 
L 3597 1613 
L 953 1613 
Q 991 1019 1311 708 
Q 1631 397 2203 397 
Q 2534 397 2845 478 
Q 3156 559 3463 722 
L 3463 178 
Q 3153 47 2828 -22 
Q 2503 -91 2169 -91 
Q 1331 -91 842 396 
Q 353 884 353 1716 
Q 353 2575 817 3079 
Q 1281 3584 2069 3584 
Q 2775 3584 3186 3129 
Q 3597 2675 3597 1894 
z
M 3022 2063 
Q 3016 2534 2758 2815 
Q 2500 3097 2075 3097 
Q 1594 3097 1305 2825 
Q 1016 2553 972 2059 
L 3022 2063 
z
" transform="scale(0.015625)"/>
       <path id="DejaVuSans-6c" d="M 603 4863 
L 1178 4863 
L 1178 0 
L 603 0 
L 603 4863 
z
" transform="scale(0.015625)"/>
       <path id="DejaVuSans-20" transform="scale(0.015625)"/>
       <path id="DejaVuSans-32" d="M 1228 531 
L 3431 531 
L 3431 0 
L 469 0 
L 469 531 
Q 828 903 1448 1529 
Q 2069 2156 2228 2338 
Q 2531 2678 2651 2914 
Q 2772 3150 2772 3378 
Q 2772 3750 2511 3984 
Q 2250 4219 1831 4219 
Q 1534 4219 1204 4116 
Q 875 4013 500 3803 
L 500 4441 
Q 881 4594 1212 4672 
Q 1544 4750 1819 4750 
Q 2544 4750 2975 4387 
Q 3406 4025 3406 3419 
Q 3406 3131 3298 2873 
Q 3191 2616 2906 2266 
Q 2828 2175 2409 1742 
Q 1991 1309 1228 531 
z
" transform="scale(0.015625)"/>
       <path id="DejaVuSans-2e" d="M 684 794 
L 1344 794 
L 1344 0 
L 684 0 
L 684 794 
z
" transform="scale(0.015625)"/>
       <path id="DejaVuSans-33" d="M 2597 2516 
Q 3050 2419 3304 2112 
Q 3559 1806 3559 1356 
Q 3559 666 3084 287 
Q 2609 -91 1734 -91 
Q 1441 -91 1130 -33 
Q 819 25 488 141 
L 488 750 
Q 750 597 1062 519 
Q 1375 441 1716 441 
Q 2309 441 2620 675 
Q 2931 909 2931 1356 
Q 2931 1769 2642 2001 
Q 2353 2234 1838 2234 
L 1294 2234 
L 1294 2753 
L 1863 2753 
Q 2328 2753 2575 2939 
Q 2822 3125 2822 3475 
Q 2822 3834 2567 4026 
Q 2313 4219 1838 4219 
Q 1578 4219 1281 4162 
Q 984 4106 628 3988 
L 628 4550 
Q 988 4650 1302 4700 
Q 1616 4750 1894 4750 
Q 2613 4750 3031 4423 
Q 3450 4097 3450 3541 
Q 3450 3153 3228 2886 
Q 3006 2619 2597 2516 
z
" transform="scale(0.015625)"/>
       <path id="DejaVuSans-25" d="M 4653 2053 
Q 4381 2053 4226 1822 
Q 4072 1591 4072 1178 
Q 4072 772 4226 539 
Q 4381 306 4653 306 
Q 4919 306 5073 539 
Q 5228 772 5228 1178 
Q 5228 1588 5073 1820 
Q 4919 2053 4653 2053 
z
M 4653 2450 
Q 5147 2450 5437 2106 
Q 5728 1763 5728 1178 
Q 5728 594 5436 251 
Q 5144 -91 4653 -91 
Q 4153 -91 3862 251 
Q 3572 594 3572 1178 
Q 3572 1766 3864 2108 
Q 4156 2450 4653 2450 
z
M 1428 4353 
Q 1159 4353 1004 4120 
Q 850 3888 850 3481 
Q 850 3069 1003 2837 
Q 1156 2606 1428 2606 
Q 1700 2606 1854 2837 
Q 2009 3069 2009 3481 
Q 2009 3884 1853 4118 
Q 1697 4353 1428 4353 
z
M 4250 4750 
L 4750 4750 
L 1831 -91 
L 1331 -91 
L 4250 4750 
z
M 1428 4750 
Q 1922 4750 2215 4408 
Q 2509 4066 2509 3481 
Q 2509 2891 2217 2550 
Q 1925 2209 1428 2209 
Q 931 2209 642 2551 
Q 353 2894 353 3481 
Q 353 4063 643 4406 
Q 934 4750 1428 4750 
z
" transform="scale(0.015625)"/>
      </defs>
      <use xlink:href="#DejaVuSans-53"/>
      <use xlink:href="#DejaVuSans-71" x="63.476562"/>
      <use xlink:href="#DejaVuSans-75" x="126.953125"/>
      <use xlink:href="#DejaVuSans-69" x="190.332031"/>
      <use xlink:href="#DejaVuSans-72" x="218.115234"/>
      <use xlink:href="#DejaVuSans-72" x="257.478516"/>
      <use xlink:href="#DejaVuSans-65" x="296.341797"/>
      <use xlink:href="#DejaVuSans-6c" x="357.865234"/>
      <use xlink:href="#DejaVuSans-20" x="385.648438"/>
      <use xlink:href="#DejaVuSans-32" x="417.435547"/>
      <use xlink:href="#DejaVuSans-2e" x="481.058594"/>
      <use xlink:href="#DejaVuSans-33" x="512.845703"/>
      <use xlink:href="#DejaVuSans-25" x="576.46875"/>
     </g>
    </g>
    <g id="patch_29">
     <path d="M 18.711875 190.065 
L 34.711875 190.065 
L 34.711875 184.465 
L 18.711875 184.465 
z
" style="fill: #89e051"/>
    </g>
    <g id="text_2">
     <!-- Shell 0.6% -->
     <g transform="translate(41.111875 190.065) scale(0.08 -0.08)">
      <defs>
       <path id="DejaVuSans-68" d="M 3513 2113 
L 3513 0 
L 2938 0 
L 2938 2094 
Q 2938 2591 2744 2837 
Q 2550 3084 2163 3084 
Q 1697 3084 1428 2787 
Q 1159 2491 1159 1978 
L 1159 0 
L 581 0 
L 581 4863 
L 1159 4863 
L 1159 2956 
Q 1366 3272 1645 3428 
Q 1925 3584 2291 3584 
Q 2894 3584 3203 3211 
Q 3513 2838 3513 2113 
z
" transform="scale(0.015625)"/>
       <path id="DejaVuSans-30" d="M 2034 4250 
Q 1547 4250 1301 3770 
Q 1056 3291 1056 2328 
Q 1056 1369 1301 889 
Q 1547 409 2034 409 
Q 2525 409 2770 889 
Q 3016 1369 3016 2328 
Q 3016 3291 2770 3770 
Q 2525 4250 2034 4250 
z
M 2034 4750 
Q 2819 4750 3233 4129 
Q 3647 3509 3647 2328 
Q 3647 1150 3233 529 
Q 2819 -91 2034 -91 
Q 1250 -91 836 529 
Q 422 1150 422 2328 
Q 422 3509 836 4129 
Q 1250 4750 2034 4750 
z
" transform="scale(0.015625)"/>
       <path id="DejaVuSans-36" d="M 2113 2584 
Q 1688 2584 1439 2293 
Q 1191 2003 1191 1497 
Q 1191 994 1439 701 
Q 1688 409 2113 409 
Q 2538 409 2786 701 
Q 3034 994 3034 1497 
Q 3034 2003 2786 2293 
Q 2538 2584 2113 2584 
z
M 3366 4563 
L 3366 3988 
Q 3128 4100 2886 4159 
Q 2644 4219 2406 4219 
Q 1781 4219 1451 3797 
Q 1122 3375 1075 2522 
Q 1259 2794 1537 2939 
Q 1816 3084 2150 3084 
Q 2853 3084 3261 2657 
Q 3669 2231 3669 1497 
Q 3669 778 3244 343 
Q 2819 -91 2113 -91 
Q 1303 -91 875 529 
Q 447 1150 447 2328 
Q 447 3434 972 4092 
Q 1497 4750 2381 4750 
Q 2619 4750 2861 4703 
Q 3103 4656 3366 4563 
z
" transform="scale(0.015625)"/>
      </defs>
      <use xlink:href="#DejaVuSans-53"/>
      <use xlink:href="#DejaVuSans-68" x="63.476562"/>
      <use xlink:href="#DejaVuSans-65" x="126.855469"/>
      <use xlink:href="#DejaVuSans-6c" x="188.378906"/>
      <use xlink:href="#DejaVuSans-6c" x="216.162109"/>
      <use xlink:href="#DejaVuSans-20" x="243.945312"/>
      <use xlink:href="#DejaVuSans-30" x="275.732422"/>
      <use xlink:href="#DejaVuSans-2e" x="339.355469"/>
      <use xlink:href="#DejaVuSans-36" x="371.142578"/>
      <use xlink:href="#DejaVuSans-25" x="434.765625"/>
     </g>
    </g>
    <g id="patch_30">
     <path d="M 18.711875 201.8075 
L 34.711875 201.8075 
L 34.711875 196.2075 
L 18.711875 196.2075 
z
" style="fill: #178600"/>
    </g>
    <g id="text_3">
     <!-- C# 5.3% -->
     <g transform="translate(41.111875 201.8075) scale(0.08 -0.08)">
      <defs>
       <path id="DejaVuSans-43" d="M 4122 4306 
L 4122 3641 
Q 3803 3938 3442 4084 
Q 3081 4231 2675 4231 
Q 1875 4231 1450 3742 
Q 1025 3253 1025 2328 
Q 1025 1406 1450 917 
Q 1875 428 2675 428 
Q 3081 428 3442 575 
Q 3803 722 4122 1019 
L 4122 359 
Q 3791 134 3420 21 
Q 3050 -91 2638 -91 
Q 1578 -91 968 557 
Q 359 1206 359 2328 
Q 359 3453 968 4101 
Q 1578 4750 2638 4750 
Q 3056 4750 3426 4639 
Q 3797 4528 4122 4306 
z
" transform="scale(0.015625)"/>
       <path id="DejaVuSans-23" d="M 3272 2816 
L 2363 2816 
L 2100 1772 
L 3016 1772 
L 3272 2816 
z
M 2803 4594 
L 2478 3297 
L 3391 3297 
L 3719 4594 
L 4219 4594 
L 3897 3297 
L 4872 3297 
L 4872 2816 
L 3775 2816 
L 3519 1772 
L 4513 1772 
L 4513 1294 
L 3397 1294 
L 3072 0 
L 2572 0 
L 2894 1294 
L 1978 1294 
L 1656 0 
L 1153 0 
L 1478 1294 
L 494 1294 
L 494 1772 
L 1594 1772 
L 1856 2816 
L 850 2816 
L 850 3297 
L 1978 3297 
L 2297 4594 
L 2803 4594 
z
" transform="scale(0.015625)"/>
       <path id="DejaVuSans-35" d="M 691 4666 
L 3169 4666 
L 3169 4134 
L 1269 4134 
L 1269 2991 
Q 1406 3038 1543 3061 
Q 1681 3084 1819 3084 
Q 2600 3084 3056 2656 
Q 3513 2228 3513 1497 
Q 3513 744 3044 326 
Q 2575 -91 1722 -91 
Q 1428 -91 1123 -41 
Q 819 9 494 109 
L 494 744 
Q 775 591 1075 516 
Q 1375 441 1709 441 
Q 2250 441 2565 725 
Q 2881 1009 2881 1497 
Q 2881 1984 2565 2268 
Q 2250 2553 1709 2553 
Q 1456 2553 1204 2497 
Q 953 2441 691 2322 
L 691 4666 
z
" transform="scale(0.015625)"/>
      </defs>
      <use xlink:href="#DejaVuSans-43"/>
      <use xlink:href="#DejaVuSans-23" x="69.824219"/>
      <use xlink:href="#DejaVuSans-20" x="153.613281"/>
      <use xlink:href="#DejaVuSans-35" x="185.400391"/>
      <use xlink:href="#DejaVuSans-2e" x="249.023438"/>
      <use xlink:href="#DejaVuSans-33" x="280.810547"/>
      <use xlink:href="#DejaVuSans-25" x="344.433594"/>
     </g>
    </g>
    <g id="patch_31">
     <path d="M 18.711875 213.55 
L 34.711875 213.55 
L 34.711875 207.95 
L 18.711875 207.95 
z
" style="fill: #f1e05a"/>
    </g>
    <g id="text_4">
     <!-- JavaScript 3.5% -->
     <g transform="translate(41.111875 213.55) scale(0.08 -0.08)">
      <defs>
       <path id="DejaVuSans-4a" d="M 628 4666 
L 1259 4666 
L 1259 325 
Q 1259 -519 939 -900 
Q 619 -1281 -91 -1281 
L -331 -1281 
L -331 -750 
L -134 -750 
Q 284 -750 456 -515 
Q 628 -281 628 325 
L 628 4666 
z
" transform="scale(0.015625)"/>
       <path id="DejaVuSans-61" d="M 2194 1759 
Q 1497 1759 1228 1600 
Q 959 1441 959 1056 
Q 959 750 1161 570 
Q 1363 391 1709 391 
Q 2188 391 2477 730 
Q 2766 1069 2766 1631 
L 2766 1759 
L 2194 1759 
z
M 3341 1997 
L 3341 0 
L 2766 0 
L 2766 531 
Q 2569 213 2275 61 
Q 1981 -91 1556 -91 
Q 1019 -91 701 211 
Q 384 513 384 1019 
Q 384 1609 779 1909 
Q 1175 2209 1959 2209 
L 2766 2209 
L 2766 2266 
Q 2766 2663 2505 2880 
Q 2244 3097 1772 3097 
Q 1472 3097 1187 3025 
Q 903 2953 641 2809 
L 641 3341 
Q 956 3463 1253 3523 
Q 1550 3584 1831 3584 
Q 2591 3584 2966 3190 
Q 3341 2797 3341 1997 
z
" transform="scale(0.015625)"/>
       <path id="DejaVuSans-76" d="M 191 3500 
L 800 3500 
L 1894 563 
L 2988 3500 
L 3597 3500 
L 2284 0 
L 1503 0 
L 191 3500 
z
" transform="scale(0.015625)"/>
       <path id="DejaVuSans-63" d="M 3122 3366 
L 3122 2828 
Q 2878 2963 2633 3030 
Q 2388 3097 2138 3097 
Q 1578 3097 1268 2742 
Q 959 2388 959 1747 
Q 959 1106 1268 751 
Q 1578 397 2138 397 
Q 2388 397 2633 464 
Q 2878 531 3122 666 
L 3122 134 
Q 2881 22 2623 -34 
Q 2366 -91 2075 -91 
Q 1284 -91 818 406 
Q 353 903 353 1747 
Q 353 2603 823 3093 
Q 1294 3584 2113 3584 
Q 2378 3584 2631 3529 
Q 2884 3475 3122 3366 
z
" transform="scale(0.015625)"/>
       <path id="DejaVuSans-70" d="M 1159 525 
L 1159 -1331 
L 581 -1331 
L 581 3500 
L 1159 3500 
L 1159 2969 
Q 1341 3281 1617 3432 
Q 1894 3584 2278 3584 
Q 2916 3584 3314 3078 
Q 3713 2572 3713 1747 
Q 3713 922 3314 415 
Q 2916 -91 2278 -91 
Q 1894 -91 1617 61 
Q 1341 213 1159 525 
z
M 3116 1747 
Q 3116 2381 2855 2742 
Q 2594 3103 2138 3103 
Q 1681 3103 1420 2742 
Q 1159 2381 1159 1747 
Q 1159 1113 1420 752 
Q 1681 391 2138 391 
Q 2594 391 2855 752 
Q 3116 1113 3116 1747 
z
" transform="scale(0.015625)"/>
       <path id="DejaVuSans-74" d="M 1172 4494 
L 1172 3500 
L 2356 3500 
L 2356 3053 
L 1172 3053 
L 1172 1153 
Q 1172 725 1289 603 
Q 1406 481 1766 481 
L 2356 481 
L 2356 0 
L 1766 0 
Q 1100 0 847 248 
Q 594 497 594 1153 
L 594 3053 
L 172 3053 
L 172 3500 
L 594 3500 
L 594 4494 
L 1172 4494 
z
" transform="scale(0.015625)"/>
      </defs>
      <use xlink:href="#DejaVuSans-4a"/>
      <use xlink:href="#DejaVuSans-61" x="29.492188"/>
      <use xlink:href="#DejaVuSans-76" x="90.771484"/>
      <use xlink:href="#DejaVuSans-61" x="149.951172"/>
      <use xlink:href="#DejaVuSans-53" x="211.230469"/>
      <use xlink:href="#DejaVuSans-63" x="274.707031"/>
      <use xlink:href="#DejaVuSans-72" x="329.6875"/>
      <use xlink:href="#DejaVuSans-69" x="370.800781"/>
      <use xlink:href="#DejaVuSans-70" x="398.583984"/>
      <use xlink:href="#DejaVuSans-74" x="462.060547"/>
      <use xlink:href="#DejaVuSans-20" x="501.269531"/>
      <use xlink:href="#DejaVuSans-33" x="533.056641"/>
      <use xlink:href="#DejaVuSans-2e" x="596.679688"/>
      <use xlink:href="#DejaVuSans-35" x="628.466797"/>
      <use xlink:href="#DejaVuSans-25" x="692.089844"/>
     </g>
    </g>
    <g id="patch_32">
     <path d="M 18.711875 225.2925 
L 34.711875 225.2925 
L 34.711875 219.6925 
L 18.711875 219.6925 
z
" style="fill: #dea584"/>
    </g>
    <g id="text_5">
     <!-- Rust 6.0% -->
     <g transform="translate(41.111875 225.2925) scale(0.08 -0.08)">
      <defs>
       <path id="DejaVuSans-52" d="M 2841 2188 
Q 3044 2119 3236 1894 
Q 3428 1669 3622 1275 
L 4263 0 
L 3584 0 
L 2988 1197 
Q 2756 1666 2539 1819 
Q 2322 1972 1947 1972 
L 1259 1972 
L 1259 0 
L 628 0 
L 628 4666 
L 2053 4666 
Q 2853 4666 3247 4331 
Q 3641 3997 3641 3322 
Q 3641 2881 3436 2590 
Q 3231 2300 2841 2188 
z
M 1259 4147 
L 1259 2491 
L 2053 2491 
Q 2509 2491 2742 2702 
Q 2975 2913 2975 3322 
Q 2975 3731 2742 3939 
Q 2509 4147 2053 4147 
L 1259 4147 
z
" transform="scale(0.015625)"/>
       <path id="DejaVuSans-73" d="M 2834 3397 
L 2834 2853 
Q 2591 2978 2328 3040 
Q 2066 3103 1784 3103 
Q 1356 3103 1142 2972 
Q 928 2841 928 2578 
Q 928 2378 1081 2264 
Q 1234 2150 1697 2047 
L 1894 2003 
Q 2506 1872 2764 1633 
Q 3022 1394 3022 966 
Q 3022 478 2636 193 
Q 2250 -91 1575 -91 
Q 1294 -91 989 -36 
Q 684 19 347 128 
L 347 722 
Q 666 556 975 473 
Q 1284 391 1588 391 
Q 1994 391 2212 530 
Q 2431 669 2431 922 
Q 2431 1156 2273 1281 
Q 2116 1406 1581 1522 
L 1381 1569 
Q 847 1681 609 1914 
Q 372 2147 372 2553 
Q 372 3047 722 3315 
Q 1072 3584 1716 3584 
Q 2034 3584 2315 3537 
Q 2597 3491 2834 3397 
z
" transform="scale(0.015625)"/>
      </defs>
      <use xlink:href="#DejaVuSans-52"/>
      <use xlink:href="#DejaVuSans-75" x="64.982422"/>
      <use xlink:href="#DejaVuSans-73" x="128.361328"/>
      <use xlink:href="#DejaVuSans-74" x="180.460938"/>
      <use xlink:href="#DejaVuSans-20" x="219.669922"/>
      <use xlink:href="#DejaVuSans-36" x="251.457031"/>
      <use xlink:href="#DejaVuSans-2e" x="315.080078"/>
      <use xlink:href="#DejaVuSans-30" x="346.867188"/>
      <use xlink:href="#DejaVuSans-25" x="410.490234"/>
     </g>
    </g>
    <g id="patch_33">
     <path d="M 120.081875 178.3225 
L 136.081875 178.3225 
L 136.081875 172.7225 
L 120.081875 172.7225 
z
" style="fill: #0000fb"/>
    </g>
    <g id="text_6">
     <!-- Raku 4.2% -->
     <g transform="translate(142.481875 178.3225) scale(0.08 -0.08)">
      <defs>
       <path id="DejaVuSans-6b" d="M 581 4863 
L 1159 4863 
L 1159 1991 
L 2875 3500 
L 3609 3500 
L 1753 1863 
L 3688 0 
L 2938 0 
L 1159 1709 
L 1159 0 
L 581 0 
L 581 4863 
z
" transform="scale(0.015625)"/>
       <path id="DejaVuSans-34" d="M 2419 4116 
L 825 1625 
L 2419 1625 
L 2419 4116 
z
M 2253 4666 
L 3047 4666 
L 3047 1625 
L 3713 1625 
L 3713 1100 
L 3047 1100 
L 3047 0 
L 2419 0 
L 2419 1100 
L 313 1100 
L 313 1709 
L 2253 4666 
z
" transform="scale(0.015625)"/>
      </defs>
      <use xlink:href="#DejaVuSans-52"/>
      <use xlink:href="#DejaVuSans-61" x="67.232422"/>
      <use xlink:href="#DejaVuSans-6b" x="128.511719"/>
      <use xlink:href="#DejaVuSans-75" x="183.296875"/>
      <use xlink:href="#DejaVuSans-20" x="246.675781"/>
      <use xlink:href="#DejaVuSans-34" x="278.462891"/>
      <use xlink:href="#DejaVuSans-2e" x="342.085938"/>
      <use xlink:href="#DejaVuSans-32" x="373.873047"/>
      <use xlink:href="#DejaVuSans-25" x="437.496094"/>
     </g>
    </g>
    <g id="patch_34">
     <path d="M 120.081875 190.065 
L 136.081875 190.065 
L 136.081875 184.465 
L 120.081875 184.465 
z
" style="fill: #00add8"/>
    </g>
    <g id="text_7">
     <!-- Go 3.7% -->
     <g transform="translate(142.481875 190.065) scale(0.08 -0.08)">
      <defs>
       <path id="DejaVuSans-47" d="M 3809 666 
L 3809 1919 
L 2778 1919 
L 2778 2438 
L 4434 2438 
L 4434 434 
Q 4069 175 3628 42 
Q 3188 -91 2688 -91 
Q 1594 -91 976 548 
Q 359 1188 359 2328 
Q 359 3472 976 4111 
Q 1594 4750 2688 4750 
Q 3144 4750 3555 4637 
Q 3966 4525 4313 4306 
L 4313 3634 
Q 3963 3931 3569 4081 
Q 3175 4231 2741 4231 
Q 1884 4231 1454 3753 
Q 1025 3275 1025 2328 
Q 1025 1384 1454 906 
Q 1884 428 2741 428 
Q 3075 428 3337 486 
Q 3600 544 3809 666 
z
" transform="scale(0.015625)"/>
       <path id="DejaVuSans-6f" d="M 1959 3097 
Q 1497 3097 1228 2736 
Q 959 2375 959 1747 
Q 959 1119 1226 758 
Q 1494 397 1959 397 
Q 2419 397 2687 759 
Q 2956 1122 2956 1747 
Q 2956 2369 2687 2733 
Q 2419 3097 1959 3097 
z
M 1959 3584 
Q 2709 3584 3137 3096 
Q 3566 2609 3566 1747 
Q 3566 888 3137 398 
Q 2709 -91 1959 -91 
Q 1206 -91 779 398 
Q 353 888 353 1747 
Q 353 2609 779 3096 
Q 1206 3584 1959 3584 
z
" transform="scale(0.015625)"/>
       <path id="DejaVuSans-37" d="M 525 4666 
L 3525 4666 
L 3525 4397 
L 1831 0 
L 1172 0 
L 2766 4134 
L 525 4134 
L 525 4666 
z
" transform="scale(0.015625)"/>
      </defs>
      <use xlink:href="#DejaVuSans-47"/>
      <use xlink:href="#DejaVuSans-6f" x="77.490234"/>
      <use xlink:href="#DejaVuSans-20" x="138.671875"/>
      <use xlink:href="#DejaVuSans-33" x="170.458984"/>
      <use xlink:href="#DejaVuSans-2e" x="234.082031"/>
      <use xlink:href="#DejaVuSans-37" x="265.869141"/>
      <use xlink:href="#DejaVuSans-25" x="329.492188"/>
     </g>
    </g>
    <g id="patch_35">
     <path d="M 120.081875 201.8075 
L 136.081875 201.8075 
L 136.081875 196.2075 
L 120.081875 196.2075 
z
" style="fill: #ffaff3"/>
    </g>
    <g id="text_8">
     <!-- Gleam 4.1% -->
     <g transform="translate(142.481875 201.8075) scale(0.08 -0.08)">
      <defs>
       <path id="DejaVuSans-6d" d="M 3328 2828 
Q 3544 3216 3844 3400 
Q 4144 3584 4550 3584 
Q 5097 3584 5394 3201 
Q 5691 2819 5691 2113 
L 5691 0 
L 5113 0 
L 5113 2094 
Q 5113 2597 4934 2840 
Q 4756 3084 4391 3084 
Q 3944 3084 3684 2787 
Q 3425 2491 3425 1978 
L 3425 0 
L 2847 0 
L 2847 2094 
Q 2847 2600 2669 2842 
Q 2491 3084 2119 3084 
Q 1678 3084 1418 2786 
Q 1159 2488 1159 1978 
L 1159 0 
L 581 0 
L 581 3500 
L 1159 3500 
L 1159 2956 
Q 1356 3278 1631 3431 
Q 1906 3584 2284 3584 
Q 2666 3584 2933 3390 
Q 3200 3197 3328 2828 
z
" transform="scale(0.015625)"/>
       <path id="DejaVuSans-31" d="M 794 531 
L 1825 531 
L 1825 4091 
L 703 3866 
L 703 4441 
L 1819 4666 
L 2450 4666 
L 2450 531 
L 3481 531 
L 3481 0 
L 794 0 
L 794 531 
z
" transform="scale(0.015625)"/>
      </defs>
      <use xlink:href="#DejaVuSans-47"/>
      <use xlink:href="#DejaVuSans-6c" x="77.490234"/>
      <use xlink:href="#DejaVuSans-65" x="105.273438"/>
      <use xlink:href="#DejaVuSans-61" x="166.796875"/>
      <use xlink:href="#DejaVuSans-6d" x="228.076172"/>
      <use xlink:href="#DejaVuSans-20" x="325.488281"/>
      <use xlink:href="#DejaVuSans-34" x="357.275391"/>
      <use xlink:href="#DejaVuSans-2e" x="420.898438"/>
      <use xlink:href="#DejaVuSans-31" x="452.685547"/>
      <use xlink:href="#DejaVuSans-25" x="516.308594"/>
     </g>
    </g>
    <g id="patch_36">
     <path d="M 120.081875 213.55 
L 136.081875 213.55 
L 136.081875 207.95 
L 120.081875 207.95 
z
" style="fill: #ffc200"/>
    </g>
    <g id="text_9">
     <!-- Nim 4.6% -->
     <g transform="translate(142.481875 213.55) scale(0.08 -0.08)">
      <defs>
       <path id="DejaVuSans-4e" d="M 628 4666 
L 1478 4666 
L 3547 763 
L 3547 4666 
L 4159 4666 
L 4159 0 
L 3309 0 
L 1241 3903 
L 1241 0 
L 628 0 
L 628 4666 
z
" transform="scale(0.015625)"/>
      </defs>
      <use xlink:href="#DejaVuSans-4e"/>
      <use xlink:href="#DejaVuSans-69" x="74.804688"/>
      <use xlink:href="#DejaVuSans-6d" x="102.587891"/>
      <use xlink:href="#DejaVuSans-20" x="200"/>
      <use xlink:href="#DejaVuSans-34" x="231.787109"/>
      <use xlink:href="#DejaVuSans-2e" x="295.410156"/>
      <use xlink:href="#DejaVuSans-36" x="327.197266"/>
      <use xlink:href="#DejaVuSans-25" x="390.820312"/>
     </g>
    </g>
    <g id="patch_37">
     <path d="M 120.081875 225.2925 
L 136.081875 225.2925 
L 136.081875 219.6925 
L 120.081875 219.6925 
z
" style="fill: #00b4ab"/>
    </g>
    <g id="text_10">
     <!-- Dart 3.7% -->
     <g transform="translate(142.481875 225.2925) scale(0.08 -0.08)">
      <defs>
       <path id="DejaVuSans-44" d="M 1259 4147 
L 1259 519 
L 2022 519 
Q 2988 519 3436 956 
Q 3884 1394 3884 2338 
Q 3884 3275 3436 3711 
Q 2988 4147 2022 4147 
L 1259 4147 
z
M 628 4666 
L 1925 4666 
Q 3281 4666 3915 4102 
Q 4550 3538 4550 2338 
Q 4550 1131 3912 565 
Q 3275 0 1925 0 
L 628 0 
L 628 4666 
z
" transform="scale(0.015625)"/>
      </defs>
      <use xlink:href="#DejaVuSans-44"/>
      <use xlink:href="#DejaVuSans-61" x="77.001953"/>
      <use xlink:href="#DejaVuSans-72" x="138.28125"/>
      <use xlink:href="#DejaVuSans-74" x="179.394531"/>
      <use xlink:href="#DejaVuSans-20" x="218.603516"/>
      <use xlink:href="#DejaVuSans-33" x="250.390625"/>
      <use xlink:href="#DejaVuSans-2e" x="314.013672"/>
      <use xlink:href="#DejaVuSans-37" x="345.800781"/>
      <use xlink:href="#DejaVuSans-25" x="409.423828"/>
     </g>
    </g>
    <g id="patch_38">
     <path d="M 207.386875 178.3225 
L 223.386875 178.3225 
L 223.386875 172.7225 
L 207.386875 172.7225 
z
" style="fill: #60affe"/>
    </g>
    <g id="text_11">
     <!-- Odin 6.0% -->
     <g transform="translate(229.786875 178.3225) scale(0.08 -0.08)">
      <defs>
       <path id="DejaVuSans-4f" d="M 2522 4238 
Q 1834 4238 1429 3725 
Q 1025 3213 1025 2328 
Q 1025 1447 1429 934 
Q 1834 422 2522 422 
Q 3209 422 3611 934 
Q 4013 1447 4013 2328 
Q 4013 3213 3611 3725 
Q 3209 4238 2522 4238 
z
M 2522 4750 
Q 3503 4750 4090 4092 
Q 4678 3434 4678 2328 
Q 4678 1225 4090 567 
Q 3503 -91 2522 -91 
Q 1538 -91 948 565 
Q 359 1222 359 2328 
Q 359 3434 948 4092 
Q 1538 4750 2522 4750 
z
" transform="scale(0.015625)"/>
       <path id="DejaVuSans-64" d="M 2906 2969 
L 2906 4863 
L 3481 4863 
L 3481 0 
L 2906 0 
L 2906 525 
Q 2725 213 2448 61 
Q 2172 -91 1784 -91 
Q 1150 -91 751 415 
Q 353 922 353 1747 
Q 353 2572 751 3078 
Q 1150 3584 1784 3584 
Q 2172 3584 2448 3432 
Q 2725 3281 2906 2969 
z
M 947 1747 
Q 947 1113 1208 752 
Q 1469 391 1925 391 
Q 2381 391 2643 752 
Q 2906 1113 2906 1747 
Q 2906 2381 2643 2742 
Q 2381 3103 1925 3103 
Q 1469 3103 1208 2742 
Q 947 2381 947 1747 
z
" transform="scale(0.015625)"/>
       <path id="DejaVuSans-6e" d="M 3513 2113 
L 3513 0 
L 2938 0 
L 2938 2094 
Q 2938 2591 2744 2837 
Q 2550 3084 2163 3084 
Q 1697 3084 1428 2787 
Q 1159 2491 1159 1978 
L 1159 0 
L 581 0 
L 581 3500 
L 1159 3500 
L 1159 2956 
Q 1366 3272 1645 3428 
Q 1925 3584 2291 3584 
Q 2894 3584 3203 3211 
Q 3513 2838 3513 2113 
z
" transform="scale(0.015625)"/>
      </defs>
      <use xlink:href="#DejaVuSans-4f"/>
      <use xlink:href="#DejaVuSans-64" x="78.710938"/>
      <use xlink:href="#DejaVuSans-69" x="142.1875"/>
      <use xlink:href="#DejaVuSans-6e" x="169.970703"/>
      <use xlink:href="#DejaVuSans-20" x="233.349609"/>
      <use xlink:href="#DejaVuSans-36" x="265.136719"/>
      <use xlink:href="#DejaVuSans-2e" x="328.759766"/>
      <use xlink:href="#DejaVuSans-30" x="360.546875"/>
      <use xlink:href="#DejaVuSans-25" x="424.169922"/>
     </g>
    </g>
    <g id="patch_39">
     <path d="M 207.386875 190.065 
L 223.386875 190.065 
L 223.386875 184.465 
L 207.386875 184.465 
z
" style="fill: #3178c6"/>
    </g>
    <g id="text_12">
     <!-- TypeScript 4.8% -->
     <g transform="translate(229.786875 190.065) scale(0.08 -0.08)">
      <defs>
       <path id="DejaVuSans-54" d="M -19 4666 
L 3928 4666 
L 3928 4134 
L 2272 4134 
L 2272 0 
L 1638 0 
L 1638 4134 
L -19 4134 
L -19 4666 
z
" transform="scale(0.015625)"/>
       <path id="DejaVuSans-79" d="M 2059 -325 
Q 1816 -950 1584 -1140 
Q 1353 -1331 966 -1331 
L 506 -1331 
L 506 -850 
L 844 -850 
Q 1081 -850 1212 -737 
Q 1344 -625 1503 -206 
L 1606 56 
L 191 3500 
L 800 3500 
L 1894 763 
L 2988 3500 
L 3597 3500 
L 2059 -325 
z
" transform="scale(0.015625)"/>
       <path id="DejaVuSans-38" d="M 2034 2216 
Q 1584 2216 1326 1975 
Q 1069 1734 1069 1313 
Q 1069 891 1326 650 
Q 1584 409 2034 409 
Q 2484 409 2743 651 
Q 3003 894 3003 1313 
Q 3003 1734 2745 1975 
Q 2488 2216 2034 2216 
z
M 1403 2484 
Q 997 2584 770 2862 
Q 544 3141 544 3541 
Q 544 4100 942 4425 
Q 1341 4750 2034 4750 
Q 2731 4750 3128 4425 
Q 3525 4100 3525 3541 
Q 3525 3141 3298 2862 
Q 3072 2584 2669 2484 
Q 3125 2378 3379 2068 
Q 3634 1759 3634 1313 
Q 3634 634 3220 271 
Q 2806 -91 2034 -91 
Q 1263 -91 848 271 
Q 434 634 434 1313 
Q 434 1759 690 2068 
Q 947 2378 1403 2484 
z
M 1172 3481 
Q 1172 3119 1398 2916 
Q 1625 2713 2034 2713 
Q 2441 2713 2670 2916 
Q 2900 3119 2900 3481 
Q 2900 3844 2670 4047 
Q 2441 4250 2034 4250 
Q 1625 4250 1398 4047 
Q 1172 3844 1172 3481 
z
" transform="scale(0.015625)"/>
      </defs>
      <use xlink:href="#DejaVuSans-54"/>
      <use xlink:href="#DejaVuSans-79" x="45.458984"/>
      <use xlink:href="#DejaVuSans-70" x="104.638672"/>
      <use xlink:href="#DejaVuSans-65" x="168.115234"/>
      <use xlink:href="#DejaVuSans-53" x="229.638672"/>
      <use xlink:href="#DejaVuSans-63" x="293.115234"/>
      <use xlink:href="#DejaVuSans-72" x="348.095703"/>
      <use xlink:href="#DejaVuSans-69" x="389.208984"/>
      <use xlink:href="#DejaVuSans-70" x="416.992188"/>
      <use xlink:href="#DejaVuSans-74" x="480.46875"/>
      <use xlink:href="#DejaVuSans-20" x="519.677734"/>
      <use xlink:href="#DejaVuSans-34" x="551.464844"/>
      <use xlink:href="#DejaVuSans-2e" x="615.087891"/>
      <use xlink:href="#DejaVuSans-38" x="646.875"/>
      <use xlink:href="#DejaVuSans-25" x="710.498047"/>
     </g>
    </g>
    <g id="patch_40">
     <path d="M 207.386875 201.8075 
L 223.386875 201.8075 
L 223.386875 196.2075 
L 207.386875 196.2075 
z
" style="fill: #a97bff"/>
    </g>
    <g id="text_13">
     <!-- Kotlin 0.0% -->
     <g transform="translate(229.786875 201.8075) scale(0.08 -0.08)">
      <defs>
       <path id="DejaVuSans-4b" d="M 628 4666 
L 1259 4666 
L 1259 2694 
L 3353 4666 
L 4166 4666 
L 1850 2491 
L 4331 0 
L 3500 0 
L 1259 2247 
L 1259 0 
L 628 0 
L 628 4666 
z
" transform="scale(0.015625)"/>
      </defs>
      <use xlink:href="#DejaVuSans-4b"/>
      <use xlink:href="#DejaVuSans-6f" x="60.576172"/>
      <use xlink:href="#DejaVuSans-74" x="121.757812"/>
      <use xlink:href="#DejaVuSans-6c" x="160.966797"/>
      <use xlink:href="#DejaVuSans-69" x="188.75"/>
      <use xlink:href="#DejaVuSans-6e" x="216.533203"/>
      <use xlink:href="#DejaVuSans-20" x="279.912109"/>
      <use xlink:href="#DejaVuSans-30" x="311.699219"/>
      <use xlink:href="#DejaVuSans-2e" x="375.322266"/>
      <use xlink:href="#DejaVuSans-30" x="407.109375"/>
      <use xlink:href="#DejaVuSans-25" x="470.732422"/>
     </g>
    </g>
    <g id="patch_41">
     <path d="M 207.386875 213.55 
L 223.386875 213.55 
L 223.386875 207.95 
L 207.386875 207.95 
z
" style="fill: #6e4a7e"/>
    </g>
    <g id="text_14">
     <!-- Elixir 4.3% -->
     <g transform="translate(229.786875 213.55) scale(0.08 -0.08)">
      <defs>
       <path id="DejaVuSans-45" d="M 628 4666 
L 3578 4666 
L 3578 4134 
L 1259 4134 
L 1259 2753 
L 3481 2753 
L 3481 2222 
L 1259 2222 
L 1259 531 
L 3634 531 
L 3634 0 
L 628 0 
L 628 4666 
z
" transform="scale(0.015625)"/>
       <path id="DejaVuSans-78" d="M 3513 3500 
L 2247 1797 
L 3578 0 
L 2900 0 
L 1881 1375 
L 863 0 
L 184 0 
L 1544 1831 
L 300 3500 
L 978 3500 
L 1906 2253 
L 2834 3500 
L 3513 3500 
z
" transform="scale(0.015625)"/>
      </defs>
      <use xlink:href="#DejaVuSans-45"/>
      <use xlink:href="#DejaVuSans-6c" x="63.183594"/>
      <use xlink:href="#DejaVuSans-69" x="90.966797"/>
      <use xlink:href="#DejaVuSans-78" x="118.75"/>
      <use xlink:href="#DejaVuSans-69" x="177.929688"/>
      <use xlink:href="#DejaVuSans-72" x="205.712891"/>
      <use xlink:href="#DejaVuSans-20" x="246.826172"/>
      <use xlink:href="#DejaVuSans-34" x="278.613281"/>
      <use xlink:href="#DejaVuSans-2e" x="342.236328"/>
      <use xlink:href="#DejaVuSans-33" x="374.023438"/>
      <use xlink:href="#DejaVuSans-25" x="437.646484"/>
     </g>
    </g>
    <g id="patch_42">
     <path d="M 207.386875 225.2925 
L 223.386875 225.2925 
L 223.386875 219.6925 
L 207.386875 219.6925 
z
" style="fill: #ff4c1f"/>
    </g>
    <g id="text_15">
     <!-- Mojo 4.5% -->
     <g transform="translate(229.786875 225.2925) scale(0.08 -0.08)">
      <defs>
       <path id="DejaVuSans-4d" d="M 628 4666 
L 1569 4666 
L 2759 1491 
L 3956 4666 
L 4897 4666 
L 4897 0 
L 4281 0 
L 4281 4097 
L 3078 897 
L 2444 897 
L 1241 4097 
L 1241 0 
L 628 0 
L 628 4666 
z
" transform="scale(0.015625)"/>
       <path id="DejaVuSans-6a" d="M 603 3500 
L 1178 3500 
L 1178 -63 
Q 1178 -731 923 -1031 
Q 669 -1331 103 -1331 
L -116 -1331 
L -116 -844 
L 38 -844 
Q 366 -844 484 -692 
Q 603 -541 603 -63 
L 603 3500 
z
M 603 4863 
L 1178 4863 
L 1178 4134 
L 603 4134 
L 603 4863 
z
" transform="scale(0.015625)"/>
      </defs>
      <use xlink:href="#DejaVuSans-4d"/>
      <use xlink:href="#DejaVuSans-6f" x="86.279297"/>
      <use xlink:href="#DejaVuSans-6a" x="147.460938"/>
      <use xlink:href="#DejaVuSans-6f" x="175.244141"/>
      <use xlink:href="#DejaVuSans-20" x="236.425781"/>
      <use xlink:href="#DejaVuSans-34" x="268.212891"/>
      <use xlink:href="#DejaVuSans-2e" x="331.835938"/>
      <use xlink:href="#DejaVuSans-35" x="363.623047"/>
      <use xlink:href="#DejaVuSans-25" x="427.246094"/>
     </g>
    </g>
    <g id="patch_43">
     <path d="M 310.229375 178.3225 
L 326.229375 178.3225 
L 326.229375 172.7225 
L 310.229375 172.7225 
z
" style="fill: #5e5086"/>
    </g>
    <g id="text_16">
     <!-- Haskell 1.7% -->
     <g transform="translate(332.629375 178.3225) scale(0.08 -0.08)">
      <defs>
       <path id="DejaVuSans-48" d="M 628 4666 
L 1259 4666 
L 1259 2753 
L 3553 2753 
L 3553 4666 
L 4184 4666 
L 4184 0 
L 3553 0 
L 3553 2222 
L 1259 2222 
L 1259 0 
L 628 0 
L 628 4666 
z
" transform="scale(0.015625)"/>
      </defs>
      <use xlink:href="#DejaVuSans-48"/>
      <use xlink:href="#DejaVuSans-61" x="75.195312"/>
      <use xlink:href="#DejaVuSans-73" x="136.474609"/>
      <use xlink:href="#DejaVuSans-6b" x="188.574219"/>
      <use xlink:href="#DejaVuSans-65" x="242.859375"/>
      <use xlink:href="#DejaVuSans-6c" x="304.382812"/>
      <use xlink:href="#DejaVuSans-6c" x="332.166016"/>
      <use xlink:href="#DejaVuSans-20" x="359.949219"/>
      <use xlink:href="#DejaVuSans-31" x="391.736328"/>
      <use xlink:href="#DejaVuSans-2e" x="455.359375"/>
      <use xlink:href="#DejaVuSans-37" x="487.146484"/>
      <use xlink:href="#DejaVuSans-25" x="550.769531"/>
     </g>
    </g>
    <g id="patch_44">
     <path d="M 310.229375 190.065 
L 326.229375 190.065 
L 326.229375 184.465 
L 310.229375 184.465 
z
" style="fill: #000100"/>
    </g>
    <g id="text_17">
     <!-- Crystal 3.4% -->
     <g transform="translate(332.629375 190.065) scale(0.08 -0.08)">
      <use xlink:href="#DejaVuSans-43"/>
      <use xlink:href="#DejaVuSans-72" x="69.824219"/>
      <use xlink:href="#DejaVuSans-79" x="110.9375"/>
      <use xlink:href="#DejaVuSans-73" x="170.117188"/>
      <use xlink:href="#DejaVuSans-74" x="222.216797"/>
      <use xlink:href="#DejaVuSans-61" x="261.425781"/>
      <use xlink:href="#DejaVuSans-6c" x="322.705078"/>
      <use xlink:href="#DejaVuSans-20" x="350.488281"/>
      <use xlink:href="#DejaVuSans-33" x="382.275391"/>
      <use xlink:href="#DejaVuSans-2e" x="445.898438"/>
      <use xlink:href="#DejaVuSans-34" x="477.685547"/>
      <use xlink:href="#DejaVuSans-25" x="541.308594"/>
     </g>
    </g>
    <g id="patch_45">
     <path d="M 310.229375 201.8075 
L 326.229375 201.8075 
L 326.229375 196.2075 
L 310.229375 196.2075 
z
" style="fill: #ec915c"/>
    </g>
    <g id="text_18">
     <!-- Zig 6.1% -->
     <g transform="translate(332.629375 201.8075) scale(0.08 -0.08)">
      <defs>
       <path id="DejaVuSans-5a" d="M 359 4666 
L 4025 4666 
L 4025 4184 
L 1075 531 
L 4097 531 
L 4097 0 
L 288 0 
L 288 481 
L 3238 4134 
L 359 4134 
L 359 4666 
z
" transform="scale(0.015625)"/>
       <path id="DejaVuSans-67" d="M 2906 1791 
Q 2906 2416 2648 2759 
Q 2391 3103 1925 3103 
Q 1463 3103 1205 2759 
Q 947 2416 947 1791 
Q 947 1169 1205 825 
Q 1463 481 1925 481 
Q 2391 481 2648 825 
Q 2906 1169 2906 1791 
z
M 3481 434 
Q 3481 -459 3084 -895 
Q 2688 -1331 1869 -1331 
Q 1566 -1331 1297 -1286 
Q 1028 -1241 775 -1147 
L 775 -588 
Q 1028 -725 1275 -790 
Q 1522 -856 1778 -856 
Q 2344 -856 2625 -561 
Q 2906 -266 2906 331 
L 2906 616 
Q 2728 306 2450 153 
Q 2172 0 1784 0 
Q 1141 0 747 490 
Q 353 981 353 1791 
Q 353 2603 747 3093 
Q 1141 3584 1784 3584 
Q 2172 3584 2450 3431 
Q 2728 3278 2906 2969 
L 2906 3500 
L 3481 3500 
L 3481 434 
z
" transform="scale(0.015625)"/>
      </defs>
      <use xlink:href="#DejaVuSans-5a"/>
      <use xlink:href="#DejaVuSans-69" x="68.505859"/>
      <use xlink:href="#DejaVuSans-67" x="96.289062"/>
      <use xlink:href="#DejaVuSans-20" x="159.765625"/>
      <use xlink:href="#DejaVuSans-36" x="191.552734"/>
      <use xlink:href="#DejaVuSans-2e" x="255.175781"/>
      <use xlink:href="#DejaVuSans-31" x="286.962891"/>
      <use xlink:href="#DejaVuSans-25" x="350.585938"/>
     </g>
    </g>
    <g id="patch_46">
     <path d="M 310.229375 213.55 
L 326.229375 213.55 
L 326.229375 207.95 
L 310.229375 207.95 
z
" style="fill: #b07219"/>
    </g>
    <g id="text_19">
     <!-- Java 6.2% -->
     <g transform="translate(332.629375 213.55) scale(0.08 -0.08)">
      <use xlink:href="#DejaVuSans-4a"/>
      <use xlink:href="#DejaVuSans-61" x="29.492188"/>
      <use xlink:href="#DejaVuSans-76" x="90.771484"/>
      <use xlink:href="#DejaVuSans-61" x="149.951172"/>
      <use xlink:href="#DejaVuSans-20" x="211.230469"/>
      <use xlink:href="#DejaVuSans-36" x="243.017578"/>
      <use xlink:href="#DejaVuSans-2e" x="306.640625"/>
      <use xlink:href="#DejaVuSans-32" x="338.427734"/>
      <use xlink:href="#DejaVuSans-25" x="402.050781"/>
     </g>
    </g>
    <g id="patch_47">
     <path d="M 310.229375 225.2925 
L 326.229375 225.2925 
L 326.229375 219.6925 
L 310.229375 219.6925 
z
" style="fill: #701516"/>
    </g>
    <g id="text_20">
     <!-- Ruby 2.6% -->
     <g transform="translate(332.629375 225.2925) scale(0.08 -0.08)">
      <defs>
       <path id="DejaVuSans-62" d="M 3116 1747 
Q 3116 2381 2855 2742 
Q 2594 3103 2138 3103 
Q 1681 3103 1420 2742 
Q 1159 2381 1159 1747 
Q 1159 1113 1420 752 
Q 1681 391 2138 391 
Q 2594 391 2855 752 
Q 3116 1113 3116 1747 
z
M 1159 2969 
Q 1341 3281 1617 3432 
Q 1894 3584 2278 3584 
Q 2916 3584 3314 3078 
Q 3713 2572 3713 1747 
Q 3713 922 3314 415 
Q 2916 -91 2278 -91 
Q 1894 -91 1617 61 
Q 1341 213 1159 525 
L 1159 0 
L 581 0 
L 581 4863 
L 1159 4863 
L 1159 2969 
z
" transform="scale(0.015625)"/>
      </defs>
      <use xlink:href="#DejaVuSans-52"/>
      <use xlink:href="#DejaVuSans-75" x="64.982422"/>
      <use xlink:href="#DejaVuSans-62" x="128.361328"/>
      <use xlink:href="#DejaVuSans-79" x="191.837891"/>
      <use xlink:href="#DejaVuSans-20" x="251.017578"/>
      <use xlink:href="#DejaVuSans-32" x="282.804688"/>
      <use xlink:href="#DejaVuSans-2e" x="346.427734"/>
      <use xlink:href="#DejaVuSans-36" x="378.214844"/>
      <use xlink:href="#DejaVuSans-25" x="441.837891"/>
     </g>
    </g>
    <g id="patch_48">
     <path d="M 400.291875 178.3225 
L 416.291875 178.3225 
L 416.291875 172.7225 
L 400.291875 172.7225 
z
" style="fill: #3572a5"/>
    </g>
    <g id="text_21">
     <!-- Python 6.0% -->
     <g transform="translate(422.691875 178.3225) scale(0.08 -0.08)">
      <defs>
       <path id="DejaVuSans-50" d="M 1259 4147 
L 1259 2394 
L 2053 2394 
Q 2494 2394 2734 2622 
Q 2975 2850 2975 3272 
Q 2975 3691 2734 3919 
Q 2494 4147 2053 4147 
L 1259 4147 
z
M 628 4666 
L 2053 4666 
Q 2838 4666 3239 4311 
Q 3641 3956 3641 3272 
Q 3641 2581 3239 2228 
Q 2838 1875 2053 1875 
L 1259 1875 
L 1259 0 
L 628 0 
L 628 4666 
z
" transform="scale(0.015625)"/>
      </defs>
      <use xlink:href="#DejaVuSans-50"/>
      <use xlink:href="#DejaVuSans-79" x="60.302734"/>
      <use xlink:href="#DejaVuSans-74" x="119.482422"/>
      <use xlink:href="#DejaVuSans-68" x="158.691406"/>
      <use xlink:href="#DejaVuSans-6f" x="222.070312"/>
      <use xlink:href="#DejaVuSans-6e" x="283.251953"/>
      <use xlink:href="#DejaVuSans-20" x="346.630859"/>
      <use xlink:href="#DejaVuSans-36" x="378.417969"/>
      <use xlink:href="#DejaVuSans-2e" x="442.041016"/>
      <use xlink:href="#DejaVuSans-30" x="473.828125"/>
      <use xlink:href="#DejaVuSans-25" x="537.451172"/>
     </g>
    </g>
    <g id="patch_49">
     <path d="M 400.291875 190.065 
L 416.291875 190.065 
L 416.291875 184.465 
L 400.291875 184.465 
z
" style="fill: #555555"/>
    </g>
    <g id="text_22">
     <!-- C 4.4% -->
     <g transform="translate(422.691875 190.065) scale(0.08 -0.08)">
      <use xlink:href="#DejaVuSans-43"/>
      <use xlink:href="#DejaVuSans-20" x="69.824219"/>
      <use xlink:href="#DejaVuSans-34" x="101.611328"/>
      <use xlink:href="#DejaVuSans-2e" x="165.234375"/>
      <use xlink:href="#DejaVuSans-34" x="197.021484"/>
      <use xlink:href="#DejaVuSans-25" x="260.644531"/>
     </g>
    </g>
    <g id="patch_50">
     <path d="M 400.291875 201.8075 
L 416.291875 201.8075 
L 416.291875 196.2075 
L 400.291875 196.2075 
z
" style="fill: #c22d40"/>
    </g>
    <g id="text_23">
     <!-- Scala 1.9% -->
     <g transform="translate(422.691875 201.8075) scale(0.08 -0.08)">
      <defs>
       <path id="DejaVuSans-39" d="M 703 97 
L 703 672 
Q 941 559 1184 500 
Q 1428 441 1663 441 
Q 2288 441 2617 861 
Q 2947 1281 2994 2138 
Q 2813 1869 2534 1725 
Q 2256 1581 1919 1581 
Q 1219 1581 811 2004 
Q 403 2428 403 3163 
Q 403 3881 828 4315 
Q 1253 4750 1959 4750 
Q 2769 4750 3195 4129 
Q 3622 3509 3622 2328 
Q 3622 1225 3098 567 
Q 2575 -91 1691 -91 
Q 1453 -91 1209 -44 
Q 966 3 703 97 
z
M 1959 2075 
Q 2384 2075 2632 2365 
Q 2881 2656 2881 3163 
Q 2881 3666 2632 3958 
Q 2384 4250 1959 4250 
Q 1534 4250 1286 3958 
Q 1038 3666 1038 3163 
Q 1038 2656 1286 2365 
Q 1534 2075 1959 2075 
z
" transform="scale(0.015625)"/>
      </defs>
      <use xlink:href="#DejaVuSans-53"/>
      <use xlink:href="#DejaVuSans-63" x="63.476562"/>
      <use xlink:href="#DejaVuSans-61" x="118.457031"/>
      <use xlink:href="#DejaVuSans-6c" x="179.736328"/>
      <use xlink:href="#DejaVuSans-61" x="207.519531"/>
      <use xlink:href="#DejaVuSans-20" x="268.798828"/>
      <use xlink:href="#DejaVuSans-31" x="300.585938"/>
      <use xlink:href="#DejaVuSans-2e" x="364.208984"/>
      <use xlink:href="#DejaVuSans-39" x="395.996094"/>
      <use xlink:href="#DejaVuSans-25" x="459.619141"/>
     </g>
    </g>
    <g id="patch_51">
     <path d="M 400.291875 213.55 
L 416.291875 213.55 
L 416.291875 207.95 
L 400.291875 207.95 
z
" style="fill: #f34b7d"/>
    </g>
    <g id="text_24">
     <!-- C++ 8.2% -->
     <g transform="translate(422.691875 213.55) scale(0.08 -0.08)">
      <defs>
       <path id="DejaVuSans-2b" d="M 2944 4013 
L 2944 2272 
L 4684 2272 
L 4684 1741 
L 2944 1741 
L 2944 0 
L 2419 0 
L 2419 1741 
L 678 1741 
L 678 2272 
L 2419 2272 
L 2419 4013 
L 2944 4013 
z
" transform="scale(0.015625)"/>
      </defs>
      <use xlink:href="#DejaVuSans-43"/>
      <use xlink:href="#DejaVuSans-2b" x="69.824219"/>
      <use xlink:href="#DejaVuSans-2b" x="153.613281"/>
      <use xlink:href="#DejaVuSans-20" x="237.402344"/>
      <use xlink:href="#DejaVuSans-38" x="269.189453"/>
      <use xlink:href="#DejaVuSans-2e" x="332.8125"/>
      <use xlink:href="#DejaVuSans-32" x="364.599609"/>
      <use xlink:href="#DejaVuSans-25" x="428.222656"/>
     </g>
    </g>
    <g id="patch_52">
     <path d="M 400.291875 225.2925 
L 416.291875 225.2925 
L 416.291875 219.6925 
L 400.291875 219.6925 
z
" style="fill: #000080"/>
    </g>
    <g id="text_25">
     <!-- Lua 2.2% -->
     <g transform="translate(422.691875 225.2925) scale(0.08 -0.08)">
      <defs>
       <path id="DejaVuSans-4c" d="M 628 4666 
L 1259 4666 
L 1259 531 
L 3531 531 
L 3531 0 
L 628 0 
L 628 4666 
z
" transform="scale(0.015625)"/>
      </defs>
      <use xlink:href="#DejaVuSans-4c"/>
      <use xlink:href="#DejaVuSans-75" x="53.962891"/>
      <use xlink:href="#DejaVuSans-61" x="117.341797"/>
      <use xlink:href="#DejaVuSans-20" x="178.621094"/>
      <use xlink:href="#DejaVuSans-32" x="210.408203"/>
      <use xlink:href="#DejaVuSans-2e" x="274.03125"/>
      <use xlink:href="#DejaVuSans-32" x="305.818359"/>
      <use xlink:href="#DejaVuSans-25" x="369.441406"/>
     </g>
    </g>
   </g>
  </g>
 </g>
 <defs>
  <clipPath id="p5effe4c440">
   <path d="M 316 98.8 
C 316 89.607684 314.189314 80.504752 310.671567 72.01216 
C 307.15382 63.519567 301.997424 55.802474 295.497475 49.302525 
C 288.997526 42.802576 281.280433 37.64618 272.78784 34.128433 
C 264.295248 30.610686 255.192316 28.8 246 28.8 
C 236.807684 28.8 227.704752 30.610686 219.21216 34.128433 
C 210.719567 37.64618 203.002474 42.802576 196.502525 49.302525 
C 190.002576 55.802474 184.84618 63.519567 181.328433 72.01216 
C 177.810686 80.504752 176 89.607684 176 98.8 
C 176 107.992316 177.810686 117.095248 181.328433 125.58784 
C 184.84618 134.080433 190.002576 141.797526 196.502525 148.297475 
C 203.002474 154.797424 210.719567 159.95382 219.21216 163.471567 
C 227.704752 166.989314 236.807684 168.8 246 168.8 
C 255.192316 168.8 264.295248 166.989314 272.78784 163.471567 
C 281.280433 159.95382 288.997526 154.797424 295.497475 148.297475 
C 301.997424 141.797526 307.15382 134.080433 310.671567 125.58784 
C 314.189314 117.095248 316 107.992316 316 98.8 
M 246 98.8 
C 246 98.8 246 98.8 246 98.8 
C 246 98.8 246 98.8 246 98.8 
C 246 98.8 246 98.8 246 98.8 
C 246 98.8 246 98.8 246 98.8 
C 246 98.8 246 98.8 246 98.8 
C 246 98.8 246 98.8 246 98.8 
C 246 98.8 246 98.8 246 98.8 
C 246 98.8 246 98.8 246 98.8 
C 246 98.8 246 98.8 246 98.8 
C 246 98.8 246 98.8 246 98.8 
C 246 98.8 246 98.8 246 98.8 
C 246 98.8 246 98.8 246 98.8 
C 246 98.8 246 98.8 246 98.8 
C 246 98.8 246 98.8 246 98.8 
C 246 98.8 246 98.8 246 98.8 
C 246 98.8 246 98.8 246 98.8 
z
"/>
  </clipPath>
 </defs>
</svg>
